<svg xmlns="http://www.w3.org/2000/svg" viewBox="0 0 32 32">
  <defs>
    <linearGradient id="grad" x1="0%" y1="0%" x2="100%" y2="100%">
      <stop offset="0%" stop-color="#38bdf8"/>
      <stop offset="100%" stop-color="#10b981"/>
    </linearGradient>
  </defs>
  <!-- Background Dark Rounded Square -->
  <rect x="2" y="2" width="28" height="28" rx="7" fill="#0f172a" stroke="#334155" stroke-width="1.5"/>
  <!-- Central IC Core -->
  <rect x="8" y="8" width="16" height="16" rx="3" fill="url(#grad)"/>
  <!-- IC Core Details -->
  <rect x="11" y="11" width="10" height="10" rx="1.5" fill="#0f172a"/>
  <!-- IC Pins -->
  <line x1="12" y1="4" x2="12" y2="8" stroke="#38bdf8" stroke-width="1.5" stroke-linecap="round"/>
  <line x1="16" y1="4" x2="16" y2="8" stroke="#38bdf8" stroke-width="1.5" stroke-linecap="round"/>
  <line x1="20" y1="4" x2="20" y2="8" stroke="#38bdf8" stroke-width="1.5" stroke-linecap="round"/>
  
  <line x1="12" y1="24" x2="12" y2="28" stroke="#10b981" stroke-width="1.5" stroke-linecap="round"/>
  <line x1="16" y1="24" x2="16" y2="28" stroke="#10b981" stroke-width="1.5" stroke-linecap="round"/>
  <line x1="20" y1="24" x2="20" y2="28" stroke="#10b981" stroke-width="1.5" stroke-linecap="round"/>

  <line x1="4" y1="12" x2="8" y2="12" stroke="#38bdf8" stroke-width="1.5" stroke-linecap="round"/>
  <line x1="4" y1="16" x2="8" y2="16" stroke="#38bdf8" stroke-width="1.5" stroke-linecap="round"/>
  <line x1="4" y1="20" x2="8" y2="20" stroke="#38bdf8" stroke-width="1.5" stroke-linecap="round"/>

  <line x1="24" y1="12" x2="28" y2="12" stroke="#10b981" stroke-width="1.5" stroke-linecap="round"/>
  <line x1="24" y1="16" x2="28" y2="16" stroke="#10b981" stroke-width="1.5" stroke-linecap="round"/>
  <line x1="24" y1="20" x2="28" y2="20" stroke="#10b981" stroke-width="1.5" stroke-linecap="round"/>
</svg>
